<?xml version="1.0" encoding="UTF-8"?>
<svg xmlns="http://www.w3.org/2000/svg" xmlns:xlink="http://www.w3.org/1999/xlink" width="173.97pt" height="173.28pt" viewBox="0 0 173.97 173.28" version="1.1">
<defs>
<clipPath id="clip1">
  <path d="M 155 96 L 173.96875 96 L 173.96875 128 L 155 128 Z M 155 96 "/>
</clipPath>
<clipPath id="clip2">
  <path d="M 76 140 L 104 140 L 104 173.28125 L 76 173.28125 Z M 76 140 "/>
</clipPath>
<clipPath id="clip3">
  <path d="M 146 140 L 173.96875 140 L 173.96875 173.28125 L 146 173.28125 Z M 146 140 "/>
</clipPath>
</defs>
<g id="surface1">
<path style=" stroke:none;fill-rule:evenodd;fill:rgb(39.99939%,56.098938%,40.79895%);fill-opacity:1;" d="M 13.234375 116.609375 L 13.234375 121.0625 C 11.589844 122.824219 9.230469 124.082031 7.515625 124.082031 C 6.40625 124.082031 4.855469 123.167969 4.855469 121.675781 C 4.855469 119.417969 7.699219 117.722656 13.234375 116.609375 M 18.03125 122.503906 L 18.03125 111.648438 C 18.03125 106.214844 13.523438 104.28125 9.667969 104.28125 C 5.785156 104.28125 2.550781 106.117188 0.796875 109.308594 C 0.679688 109.519531 0.652344 109.773438 0.722656 110.007813 C 0.792969 110.242188 0.953125 110.433594 1.167969 110.546875 L 3.78125 111.914063 C 4.003906 112.035156 4.273438 112.050781 4.515625 111.960938 C 4.753906 111.875 4.945313 111.6875 5.042969 111.449219 C 5.304688 110.796875 6.410156 108.664063 9.707031 108.664063 C 12.867188 108.664063 13.234375 110.390625 13.234375 111.691406 L 13.234375 112.101563 C 5.085938 113.617188 0.0625 115.816406 0.0625 121.632813 C 0.0625 125.71875 2.890625 128.460938 7.101563 128.460938 C 9.910156 128.460938 12.066406 127.253906 13.523438 126.0625 C 13.585938 126.625 13.652344 127.242188 13.652344 127.242188 C 13.707031 127.699219 14.09375 128.046875 14.554688 128.046875 L 17.617188 128.046875 C 17.898438 128.046875 18.164063 127.917969 18.335938 127.695313 C 18.507813 127.476563 18.566406 127.1875 18.496094 126.914063 C 18.203125 125.769531 18.03125 124.683594 18.03125 122.503906 "/>
<path style="fill:none;stroke-width:1.25;stroke-linecap:butt;stroke-linejoin:miter;stroke:rgb(39.99939%,56.098938%,40.79895%);stroke-opacity:1;stroke-miterlimit:2.613;" d="M 132.34375 566.70625 L 132.34375 522.175 C 115.898438 504.557812 92.304688 491.979687 75.15625 491.979687 C 64.0625 491.979687 48.554688 501.120312 48.554688 516.042187 C 48.554688 538.620312 76.992188 555.573437 132.34375 566.70625 Z M 180.3125 507.760937 L 180.3125 616.315625 C 180.3125 670.651562 135.234375 689.9875 96.679688 689.9875 C 57.851563 689.9875 25.507813 671.628125 7.96875 639.714062 C 6.796875 637.604687 6.523438 635.065625 7.226563 632.721875 C 7.929688 630.378125 9.53125 628.464062 11.679688 627.33125 L 37.8125 613.659375 C 40.039063 612.448437 42.734375 612.292187 45.15625 613.190625 C 47.539063 614.05 49.453125 615.925 50.429688 618.307812 C 53.046875 624.83125 64.101563 646.159375 97.070313 646.159375 C 128.671875 646.159375 132.34375 628.89375 132.34375 615.885937 L 132.34375 611.784375 C 50.859375 596.628125 0.625 574.635937 0.625 516.471875 C 0.625 475.6125 28.90625 448.190625 71.015625 448.190625 C 99.101563 448.190625 120.664063 460.260937 135.234375 472.175 C 135.859375 466.55 136.523438 460.378125 136.523438 460.378125 C 137.070313 455.807812 140.9375 452.33125 145.546875 452.33125 L 176.171875 452.33125 C 178.984375 452.33125 181.640625 453.620312 183.359375 455.846875 C 185.078125 458.034375 185.664063 460.925 184.960938 463.659375 C 182.03125 475.104687 180.3125 485.964062 180.3125 507.760937 Z M 180.3125 507.760937 " transform="matrix(0.1,0,0,-0.1,0,173.28)"/>
<path style=" stroke:none;fill-rule:evenodd;fill:rgb(39.99939%,56.098938%,40.79895%);fill-opacity:1;" d="M 29.90625 113.59375 C 27.199219 112.789063 25.550781 112.207031 25.550781 110.949219 C 25.550781 108.960938 27.421875 108.664063 28.539063 108.664063 C 30.449219 108.664063 31.808594 109.417969 33.386719 111.351563 C 33.542969 111.546875 33.769531 111.664063 34.015625 111.683594 C 34.261719 111.703125 34.503906 111.621094 34.6875 111.460938 L 36.761719 109.640625 C 37.097656 109.339844 37.164063 108.835938 36.917969 108.460938 C 35.324219 106.046875 31.984375 104.332031 28.800781 104.28125 C 24.050781 104.234375 20.894531 106.855469 20.757813 110.957031 C 20.597656 115.964844 24.957031 117.222656 28.453125 118.234375 C 31.4375 119.101563 33.265625 119.714844 33.265625 121.425781 C 33.265625 122.710938 32.289063 124.082031 29.535156 124.082031 C 27.308594 124.082031 25.433594 123.070313 24.105469 121.15625 C 23.964844 120.953125 23.75 120.820313 23.507813 120.78125 C 23.261719 120.742188 23.015625 120.800781 22.816406 120.949219 L 20.457031 122.730469 C 20.058594 123.03125 19.976563 123.597656 20.277344 124 C 22.371094 126.792969 25.863281 128.460938 29.617188 128.460938 C 33.683594 128.460938 38.058594 126.210938 38.058594 121.261719 C 38.058594 116.027344 33.347656 114.621094 29.90625 113.59375 "/>
<path style="fill:none;stroke-width:1.25;stroke-linecap:butt;stroke-linejoin:miter;stroke:rgb(39.99939%,56.098938%,40.79895%);stroke-opacity:1;stroke-miterlimit:2.613;" d="M 299.0625 596.8625 C 271.992188 604.909375 255.507813 610.729687 255.507813 623.307812 C 255.507813 643.190625 274.21875 646.159375 285.390625 646.159375 C 304.492188 646.159375 318.085938 638.620312 333.867188 619.284375 C 335.429688 617.33125 337.695313 616.159375 340.15625 615.964062 C 342.617188 615.76875 345.039063 616.589062 346.875 618.190625 L 367.617188 636.39375 C 370.976563 639.401562 371.640625 644.440625 369.179688 648.190625 C 353.242188 672.33125 319.84375 689.479687 288.007813 689.9875 C 240.507813 690.45625 208.945313 664.245312 207.578125 623.229687 C 205.976563 573.151562 249.570313 560.573437 284.53125 550.45625 C 314.375 541.784375 332.65625 535.651562 332.65625 518.542187 C 332.65625 505.690625 322.890625 491.979687 295.351563 491.979687 C 273.085938 491.979687 254.335938 502.096875 241.054688 521.2375 C 239.648438 523.26875 237.5 524.596875 235.078125 524.9875 C 232.617188 525.378125 230.15625 524.792187 228.164063 523.307812 L 204.570313 505.495312 C 200.585938 502.4875 199.765625 496.823437 202.773438 492.8 C 223.710938 464.870312 258.632813 448.190625 296.171875 448.190625 C 336.835938 448.190625 380.585938 470.690625 380.585938 520.182812 C 380.585938 572.526562 333.476563 586.589062 299.0625 596.8625 Z M 299.0625 596.8625 " transform="matrix(0.1,0,0,-0.1,0,173.28)"/>
<path style=" stroke:none;fill-rule:evenodd;fill:rgb(39.99939%,56.098938%,40.79895%);fill-opacity:1;" d="M 54.296875 116.207031 C 54.296875 121.503906 52.601563 124.082031 49.113281 124.082031 C 47.757813 124.082031 46.050781 123.132813 44.59375 121.621094 L 44.59375 111.046875 C 46.441406 109.28125 47.621094 108.664063 49.113281 108.664063 C 52.40625 108.664063 54.296875 111.414063 54.296875 116.207031 M 49.363281 104.28125 C 47.765625 104.28125 45.988281 105.003906 44.59375 106.0625 L 44.59375 105.605469 C 44.59375 105.101563 44.191406 104.699219 43.691406 104.699219 L 40.707031 104.699219 C 40.207031 104.699219 39.800781 105.101563 39.800781 105.605469 L 39.800781 135.09375 C 39.800781 135.59375 40.207031 136 40.707031 136 L 43.691406 136 C 44.191406 136 44.59375 135.59375 44.59375 135.09375 L 44.59375 126.8125 C 45.945313 127.691406 47.652344 128.460938 49.53125 128.460938 C 54.132813 128.460938 59.09375 124.679688 59.09375 116.375 C 59.09375 107.449219 53.851563 104.28125 49.363281 104.28125 "/>
<path style="fill:none;stroke-width:1.25;stroke-linecap:butt;stroke-linejoin:miter;stroke:rgb(39.99939%,56.098938%,40.79895%);stroke-opacity:1;stroke-miterlimit:2.613;" d="M 542.96875 570.729687 C 542.96875 517.760937 526.015625 491.979687 491.132813 491.979687 C 477.578125 491.979687 460.507813 501.471875 445.9375 516.589062 L 445.9375 622.33125 C 464.414063 639.9875 476.210938 646.159375 491.132813 646.159375 C 524.0625 646.159375 542.96875 618.659375 542.96875 570.729687 Z M 493.632813 689.9875 C 477.65625 689.9875 459.882813 682.760937 445.9375 672.175 L 445.9375 676.745312 C 445.9375 681.784375 441.914063 685.807812 436.914063 685.807812 L 407.070313 685.807812 C 402.070313 685.807812 398.007813 681.784375 398.007813 676.745312 L 398.007813 381.8625 C 398.007813 376.8625 402.070313 372.8 407.070313 372.8 L 436.914063 372.8 C 441.914063 372.8 445.9375 376.8625 445.9375 381.8625 L 445.9375 464.675 C 459.453125 455.885937 476.523438 448.190625 495.3125 448.190625 C 541.328125 448.190625 590.9375 486.003125 590.9375 569.05 C 590.9375 658.307812 538.515625 689.9875 493.632813 689.9875 Z M 493.632813 689.9875 " transform="matrix(0.1,0,0,-0.1,0,173.28)"/>
<path style=" stroke:none;fill-rule:evenodd;fill:rgb(39.99939%,56.098938%,40.79895%);fill-opacity:1;" d="M 65.507813 113.480469 C 65.824219 111.351563 66.894531 108.664063 70.296875 108.664063 C 72.710938 108.664063 74.21875 110.453125 74.472656 113.480469 Z M 79.492188 121.738281 L 77.171875 120.539063 C 76.738281 120.3125 76.203125 120.472656 75.964844 120.902344 C 74.828125 122.953125 72.988281 124.082031 70.792969 124.082031 C 67.914063 124.082031 65.714844 121.457031 65.386719 117.859375 L 78.414063 117.859375 C 78.914063 117.859375 79.320313 117.453125 79.320313 116.953125 L 79.320313 114.964844 C 79.320313 107.089844 74.613281 104.28125 70.214844 104.28125 C 64.332031 104.28125 60.527344 109.03125 60.527344 116.375 C 60.527344 125.296875 66.058594 128.460938 70.792969 128.460938 C 76.007813 128.460938 78.304688 125.699219 79.863281 122.996094 C 79.984375 122.78125 80.015625 122.527344 79.945313 122.289063 C 79.878906 122.050781 79.714844 121.851563 79.492188 121.738281 "/>
<path style="fill:none;stroke-width:1.25;stroke-linecap:butt;stroke-linejoin:miter;stroke:rgb(39.99939%,56.098938%,40.79895%);stroke-opacity:1;stroke-miterlimit:2.613;" d="M 655.078125 597.995312 C 658.242188 619.284375 668.945313 646.159375 702.96875 646.159375 C 727.109375 646.159375 742.1875 628.26875 744.726563 597.995312 Z M 794.921875 515.417187 L 771.71875 527.409375 C 767.382813 529.675 762.03125 528.073437 759.648438 523.776562 C 748.28125 503.26875 729.882813 491.979687 707.929688 491.979687 C 679.140625 491.979687 657.148438 518.229687 653.867188 554.20625 L 784.140625 554.20625 C 789.140625 554.20625 793.203125 558.26875 793.203125 563.26875 L 793.203125 583.151562 C 793.203125 661.901562 746.132813 689.9875 702.148438 689.9875 C 643.320313 689.9875 605.273438 642.4875 605.273438 569.05 C 605.273438 479.83125 660.585938 448.190625 707.929688 448.190625 C 760.078125 448.190625 783.046875 475.807812 798.632813 502.839062 C 799.84375 504.9875 800.15625 507.526562 799.453125 509.909375 C 798.789063 512.292187 797.148438 514.284375 794.921875 515.417187 Z M 794.921875 515.417187 " transform="matrix(0.1,0,0,-0.1,0,173.28)"/>
<path style=" stroke:none;fill-rule:evenodd;fill:rgb(39.99939%,56.098938%,40.79895%);fill-opacity:1;" d="M 92.125 104.28125 C 90.21875 104.28125 88.300781 105.0625 86.566406 106.476563 L 86.566406 105.605469 C 86.566406 105.101563 86.164063 104.699219 85.664063 104.699219 L 82.679688 104.699219 C 82.179688 104.699219 81.773438 105.101563 81.773438 105.605469 L 81.773438 127.140625 C 81.773438 127.640625 82.179688 128.046875 82.679688 128.046875 L 85.664063 128.046875 C 86.164063 128.046875 86.566406 127.640625 86.566406 127.140625 L 86.566406 111.410156 C 87.984375 110.007813 90.160156 108.664063 91.832031 108.664063 C 93.449219 108.664063 94.449219 109.148438 94.449219 111.570313 L 94.449219 127.140625 C 94.449219 127.640625 94.851563 128.046875 95.355469 128.046875 L 98.335938 128.046875 C 98.835938 128.046875 99.242188 127.640625 99.242188 127.140625 L 99.242188 111.484375 C 99.242188 106.175781 95.566406 104.28125 92.125 104.28125 "/>
<path style="fill:none;stroke-width:1.25;stroke-linecap:butt;stroke-linejoin:miter;stroke:rgb(39.99939%,56.098938%,40.79895%);stroke-opacity:1;stroke-miterlimit:2.613;" d="M 921.25 689.9875 C 902.1875 689.9875 883.007813 682.175 865.664063 668.034375 L 865.664063 676.745312 C 865.664063 681.784375 861.640625 685.807812 856.640625 685.807812 L 826.796875 685.807812 C 821.796875 685.807812 817.734375 681.784375 817.734375 676.745312 L 817.734375 461.39375 C 817.734375 456.39375 821.796875 452.33125 826.796875 452.33125 L 856.640625 452.33125 C 861.640625 452.33125 865.664063 456.39375 865.664063 461.39375 L 865.664063 618.698437 C 879.84375 632.721875 901.601563 646.159375 918.320313 646.159375 C 934.492188 646.159375 944.492188 641.315625 944.492188 617.096875 L 944.492188 461.39375 C 944.492188 456.39375 948.515625 452.33125 953.554688 452.33125 L 983.359375 452.33125 C 988.359375 452.33125 992.421875 456.39375 992.421875 461.39375 L 992.421875 617.95625 C 992.421875 671.042187 955.664063 689.9875 921.25 689.9875 Z M 921.25 689.9875 " transform="matrix(0.1,0,0,-0.1,0,173.28)"/>
<path style=" stroke:none;fill-rule:evenodd;fill:rgb(100%,83.528137%,12.156677%);fill-opacity:1;" d="M 112.402344 105.101563 L 108.183594 105.101563 L 108.183594 98.5625 C 108.183594 98.285156 107.960938 98.058594 107.679688 98.058594 L 105.195313 98.058594 C 104.917969 98.058594 104.691406 98.285156 104.691406 98.5625 L 104.691406 105.101563 L 101.964844 105.101563 C 101.6875 105.101563 101.460938 105.328125 101.460938 105.605469 L 101.460938 107.589844 C 101.460938 107.871094 101.6875 108.09375 101.964844 108.09375 L 104.691406 108.09375 L 104.691406 123.785156 C 104.691406 126.78125 106.242188 128.058594 109.875 128.058594 C 110.484375 128.058594 111.09375 127.9375 111.679688 127.824219 L 112.476563 127.679688 C 112.714844 127.636719 112.90625 127.425781 112.90625 127.183594 L 112.90625 125.113281 C 112.90625 124.953125 112.828125 124.800781 112.699219 124.703125 C 112.570313 124.609375 112.402344 124.585938 112.25 124.632813 C 111.355469 124.914063 110.535156 125.0625 109.875 125.0625 C 108.65625 125.0625 108.183594 124.589844 108.183594 123.371094 L 108.183594 108.09375 L 112.402344 108.09375 C 112.679688 108.09375 112.90625 107.871094 112.90625 107.589844 L 112.90625 105.605469 C 112.90625 105.328125 112.679688 105.101563 112.402344 105.101563 "/>
<path style=" stroke:none;fill-rule:evenodd;fill:rgb(100%,83.528137%,12.156677%);fill-opacity:1;" d="M 123.402344 107.683594 C 126.542969 107.714844 128.425781 109.84375 129.027344 113.964844 L 117.65625 113.964844 C 117.875 111.613281 119.398438 107.644531 123.402344 107.683594 M 132.589844 121.851563 L 130.558594 120.773438 C 130.324219 120.652344 130.039063 120.726563 129.894531 120.949219 C 127.824219 124.21875 126.617188 125.0625 124.027344 125.0625 C 118.5 125.0625 117.710938 119.386719 117.625 116.960938 L 132.101563 116.960938 C 132.382813 116.960938 132.605469 116.734375 132.605469 116.453125 C 132.605469 108.976563 129.28125 104.6875 123.488281 104.6875 C 117.796875 104.6875 114.121094 109.273438 114.121094 116.375 C 114.121094 123.90625 117.566406 128.058594 123.820313 128.058594 C 127.964844 128.058594 130.308594 126.617188 132.78125 122.558594 C 132.855469 122.441406 132.871094 122.296875 132.835938 122.160156 C 132.800781 122.027344 132.710938 121.917969 132.589844 121.851563 "/>
<path style=" stroke:none;fill-rule:evenodd;fill:rgb(100%,83.528137%,12.156677%);fill-opacity:1;" d="M 153.488281 121.59375 L 151.5 120.640625 C 151.269531 120.53125 150.992188 120.609375 150.855469 120.828125 C 149.175781 123.507813 147.648438 125.0625 144.820313 125.0625 C 140.941406 125.0625 138.53125 121.734375 138.53125 116.375 C 138.53125 110.523438 140.589844 107.679688 144.820313 107.679688 C 147.070313 107.679688 148.65625 108.96875 149.953125 111.859375 C 150.058594 112.082031 150.304688 112.199219 150.546875 112.136719 L 152.824219 111.511719 C 152.960938 111.480469 153.074219 111.386719 153.136719 111.261719 C 153.203125 111.136719 153.214844 110.992188 153.164063 110.859375 C 151.710938 106.820313 148.824219 104.6875 144.820313 104.6875 C 138.699219 104.6875 135.039063 109.054688 135.039063 116.375 C 135.039063 123.582031 138.789063 128.058594 144.820313 128.058594 C 148.496094 128.058594 151.402344 126.175781 153.703125 122.304688 C 153.777344 122.183594 153.792969 122.035156 153.753906 121.898438 C 153.710938 121.765625 153.613281 121.65625 153.488281 121.59375 "/>
<g clip-path="url(#clip1)" clip-rule="nonzero">
<path style=" stroke:none;fill-rule:evenodd;fill:rgb(100%,83.528137%,12.156677%);fill-opacity:1;" d="M 166.207031 104.6875 C 163.335938 104.6875 161.40625 105.8125 159.335938 107.789063 L 159.335938 97.238281 C 159.335938 96.960938 159.113281 96.734375 158.835938 96.734375 L 156.347656 96.734375 C 156.070313 96.734375 155.84375 96.960938 155.84375 97.238281 L 155.84375 127.140625 C 155.84375 127.417969 156.070313 127.644531 156.347656 127.644531 L 158.835938 127.644531 C 159.113281 127.644531 159.335938 127.417969 159.335938 127.140625 L 159.335938 111.5 C 159.53125 111.320313 159.894531 110.988281 159.894531 110.988281 C 162.140625 108.925781 163.496094 107.683594 165.710938 107.683594 C 168.507813 107.683594 169.597656 109.082031 169.597656 112.6875 L 169.597656 127.140625 C 169.597656 127.417969 169.820313 127.644531 170.097656 127.644531 L 172.585938 127.644531 C 172.863281 127.644531 173.089844 127.417969 173.089844 127.140625 L 173.089844 112.4375 C 173.089844 107.292969 170.773438 104.6875 166.207031 104.6875 "/>
</g>
<path style=" stroke:none;fill-rule:evenodd;fill:rgb(100%,83.528137%,12.156677%);fill-opacity:1;" d="M 76.753906 21.078125 C 76.574219 20.863281 76.308594 20.746094 76.03125 20.746094 C 75.753906 20.742188 75.496094 20.863281 75.308594 21.074219 L 73.453125 23.234375 C 73.296875 23.414063 73.207031 23.648438 73.207031 23.890625 L 73.207031 54.816406 C 73.207031 55.054688 73.296875 55.292969 73.453125 55.472656 L 75.324219 57.621094 C 75.507813 57.828125 75.769531 57.949219 76.042969 57.949219 C 76.316406 57.949219 76.578125 57.828125 76.761719 57.613281 L 78.613281 55.457031 C 78.769531 55.277344 78.851563 55.046875 78.851563 54.808594 L 78.835938 23.890625 C 78.835938 23.652344 78.753906 23.421875 78.597656 23.238281 "/>
<path style=" stroke:none;fill-rule:evenodd;fill:rgb(100%,83.528137%,12.156677%);fill-opacity:1;" d="M 68.71875 26.792969 C 68.527344 26.792969 68.347656 26.878906 68.222656 27.027344 L 66.367188 29.273438 C 66.265625 29.394531 66.210938 29.550781 66.210938 29.710938 L 66.210938 54.96875 C 66.210938 55.128906 66.265625 55.285156 66.367188 55.40625 L 68.292969 57.71875 C 68.417969 57.875 68.601563 57.960938 68.796875 57.957031 C 68.992188 57.953125 69.175781 57.863281 69.300781 57.710938 L 71.097656 55.4375 C 71.195313 55.320313 71.246094 55.171875 71.246094 55.015625 L 71.246094 29.664063 C 71.246094 29.503906 71.1875 29.347656 71.082031 29.222656 L 69.214844 27.023438 C 69.09375 26.875 68.90625 26.789063 68.71875 26.792969 "/>
<path style=" stroke:none;fill-rule:evenodd;fill:rgb(100%,83.528137%,12.156677%);fill-opacity:1;" d="M 91.503906 57.949219 C 91.777344 57.949219 92.035156 57.828125 92.21875 57.621094 L 94.089844 55.472656 C 94.25 55.292969 94.339844 55.054688 94.339844 54.816406 L 94.339844 23.890625 C 94.339844 23.648438 94.25 23.414063 94.09375 23.234375 L 92.234375 21.078125 C 92.050781 20.867188 91.789063 20.742188 91.515625 20.746094 C 91.238281 20.746094 90.972656 20.867188 90.792969 21.078125 L 88.945313 23.238281 C 88.792969 23.421875 88.707031 23.652344 88.707031 23.890625 L 88.695313 54.808594 C 88.695313 55.046875 88.777344 55.277344 88.929688 55.457031 L 90.785156 57.613281 C 90.964844 57.828125 91.226563 57.949219 91.503906 57.949219 "/>
<path style=" stroke:none;fill-rule:evenodd;fill:rgb(100%,83.528137%,12.156677%);fill-opacity:1;" d="M 98.746094 57.957031 C 98.945313 57.960938 99.128906 57.875 99.253906 57.722656 L 101.179688 55.40625 C 101.28125 55.285156 101.335938 55.128906 101.335938 54.96875 L 101.335938 29.710938 C 101.335938 29.550781 101.28125 29.394531 101.179688 29.277344 L 99.324219 27.03125 C 99.199219 26.878906 99.019531 26.792969 98.828125 26.792969 C 98.640625 26.792969 98.457031 26.875 98.332031 27.023438 L 96.464844 29.222656 C 96.355469 29.347656 96.300781 29.503906 96.300781 29.664063 L 96.300781 55.015625 C 96.300781 55.171875 96.355469 55.320313 96.449219 55.441406 L 98.25 57.710938 C 98.371094 57.863281 98.554688 57.953125 98.746094 57.957031 "/>
<path style=" stroke:none;fill-rule:evenodd;fill:rgb(100%,83.528137%,12.156677%);fill-opacity:1;" d="M 61.710938 33.789063 C 61.535156 33.792969 61.371094 33.859375 61.261719 33.976563 L 59.402344 35.902344 C 59.3125 35.996094 59.261719 36.117188 59.261719 36.238281 L 59.261719 48.527344 C 59.261719 48.65625 59.316406 48.78125 59.414063 48.878906 L 61.339844 50.753906 C 61.453125 50.863281 61.621094 50.929688 61.796875 50.925781 C 61.96875 50.921875 62.132813 50.851563 62.246094 50.738281 L 64.042969 48.847656 C 64.132813 48.753906 64.183594 48.636719 64.183594 48.511719 L 64.183594 36.199219 C 64.183594 36.074219 64.132813 35.953125 64.035156 35.855469 L 62.167969 33.96875 C 62.054688 33.855469 61.890625 33.789063 61.710938 33.789063 "/>
<path style=" stroke:none;fill-rule:evenodd;fill:rgb(100%,83.528137%,12.156677%);fill-opacity:1;" d="M 105.75 50.925781 C 105.925781 50.929688 106.089844 50.863281 106.207031 50.753906 L 108.132813 48.875 C 108.230469 48.78125 108.285156 48.65625 108.285156 48.527344 L 108.285156 36.238281 C 108.285156 36.117188 108.234375 35.992188 108.144531 35.902344 L 106.289063 33.976563 C 106.175781 33.859375 106.011719 33.792969 105.835938 33.789063 C 105.65625 33.789063 105.492188 33.855469 105.378906 33.972656 L 103.511719 35.855469 C 103.414063 35.953125 103.363281 36.074219 103.363281 36.199219 L 103.363281 48.511719 C 103.363281 48.636719 103.414063 48.753906 103.503906 48.847656 L 105.300781 50.738281 C 105.414063 50.851563 105.578125 50.921875 105.75 50.925781 "/>
<path style=" stroke:none;fill-rule:evenodd;fill:rgb(100%,83.528137%,12.156677%);fill-opacity:1;" d="M 94.054688 75.457031 C 102.777344 76.140625 112.867188 71.316406 117.414063 66.679688 C 124.90625 59.050781 128.277344 49.851563 128.277344 37.949219 C 128.277344 15.046875 112.324219 0 87.578125 0 C 70.972656 0 56.328125 7.074219 46.125 19.761719 C 39.074219 28.519531 35.273438 39.183594 35.273438 50.636719 C 35.273438 65.121094 41.238281 76.832031 51.875 85.023438 C 59.796875 91.085938 71.308594 95.230469 84.976563 94.792969 C 93.976563 94.503906 103.015625 92.109375 107.777344 88.472656 C 111.6875 85.472656 109.894531 85.53125 108.640625 85.714844 C 107.765625 85.84375 106.605469 86.34375 106.605469 86.34375 C 99.65625 89.449219 92.628906 91.3125 85.042969 91.3125 C 60.085938 91.3125 43.847656 76.347656 43.847656 51.757813 C 43.847656 35.03125 50.679688 20.886719 62.949219 12.015625 C 70.433594 6.511719 79.332031 3.820313 88.882813 3.820313 C 110.039063 3.820313 124.984375 17.402344 124.800781 37.613281 C 124.6875 50.085938 122.441406 57.007813 115.828125 64.527344 C 109.6875 71.496094 100.351563 73.230469 94.6875 72.695313 C 87.714844 72.035156 86.945313 67.867188 86.925781 64.410156 L 86.925781 64.003906 L 86.921875 19.035156 C 86.921875 18.640625 86.816406 18.257813 86.621094 17.933594 L 85.09375 15.429688 C 84.785156 14.921875 84.28125 14.617188 83.742188 14.621094 C 83.207031 14.625 82.707031 14.933594 82.398438 15.445313 L 80.910156 17.949219 C 80.722656 18.269531 80.621094 18.648438 80.621094 19.035156 L 80.613281 63.710938 L 80.613281 64.355469 C 80.613281 64.378906 80.621094 64.402344 80.621094 64.425781 C 80.617188 64.4375 80.601563 64.445313 80.601563 64.460938 C 80.601563 69.992188 86.382813 74.859375 94.054688 75.457031 "/>
<path style=" stroke:none;fill-rule:evenodd;fill:rgb(100%,83.528137%,12.156677%);fill-opacity:1;" d="M 113.132813 96.097656 L 114.105469 93.625 L 114.746094 93.625 L 114.746094 96.734375 L 114.371094 96.734375 L 114.371094 93.953125 L 114.355469 93.953125 L 113.230469 96.734375 L 113.003906 96.734375 L 111.878906 93.953125 L 111.863281 93.953125 L 111.863281 96.734375 L 111.488281 96.734375 L 111.488281 93.625 L 112.128906 93.625 Z M 110.929688 93.953125 L 109.929688 93.953125 L 109.929688 96.734375 L 109.550781 96.734375 L 109.550781 93.953125 L 108.515625 93.953125 L 108.515625 93.625 L 110.929688 93.625 "/>
<path style=" stroke:none;fill-rule:nonzero;fill:rgb(1.998901%,34.899902%,27.49939%);fill-opacity:1;" d="M 11.160156 172.707031 L 2.988281 172.707031 L 2.988281 141.28125 L 11.160156 141.28125 L 11.160156 153.8125 L 22.722656 153.8125 L 22.722656 141.28125 L 30.894531 141.28125 L 30.894531 172.707031 L 22.722656 172.707031 L 22.722656 160.097656 L 11.160156 160.097656 "/>
<path style=" stroke:none;fill-rule:nonzero;fill:rgb(1.998901%,34.899902%,27.49939%);fill-opacity:1;" d="M 45.929688 141.28125 L 53.40625 151.335938 L 60.882813 141.28125 L 70.707031 141.28125 L 57.492188 158.613281 L 57.492188 172.707031 L 49.320313 172.707031 L 49.320313 158.613281 L 36.105469 141.28125 "/>
<g clip-path="url(#clip2)" clip-rule="nonzero">
<path style=" stroke:none;fill-rule:nonzero;fill:rgb(1.998901%,34.899902%,27.49939%);fill-opacity:1;" d="M 102.085938 143.679688 L 98.78125 149.394531 C 98.78125 149.394531 95.21875 147.222656 91.523438 147.222656 C 88.742188 147.222656 87.261719 148.328125 87.261719 150.042969 C 87.261719 151.796875 90.652344 153.050781 94.738281 154.574219 C 98.738281 156.0625 103.128906 159.03125 103.128906 163.148438 C 103.128906 170.652344 96.609375 173.28125 89.609375 173.28125 C 81.222656 173.28125 76.132813 169.128906 76.132813 169.128906 L 80.222656 163.109375 C 80.222656 163.109375 85 166.652344 89 166.652344 C 90.785156 166.652344 94.175781 166.5 94.175781 163.566406 C 94.175781 161.28125 90.347656 160.253906 86.089844 158.386719 C 81.785156 156.519531 79.265625 153.585938 79.265625 150.308594 C 79.265625 144.441406 85.175781 140.707031 90.957031 140.707031 C 97.476563 140.707031 102.085938 143.679688 102.085938 143.679688 "/>
</g>
<path style=" stroke:none;fill-rule:nonzero;fill:rgb(1.998901%,34.899902%,27.49939%);fill-opacity:1;" d="M 116.773438 141.28125 L 124.25 151.335938 L 131.726563 141.28125 L 141.550781 141.28125 L 128.335938 158.613281 L 128.335938 172.707031 L 120.164063 172.707031 L 120.164063 158.613281 L 106.949219 141.28125 "/>
<g clip-path="url(#clip3)" clip-rule="nonzero">
<path style=" stroke:none;fill-rule:nonzero;fill:rgb(1.998901%,34.899902%,27.49939%);fill-opacity:1;" d="M 172.929688 143.679688 L 169.628906 149.394531 C 169.628906 149.394531 166.0625 147.222656 162.367188 147.222656 C 159.585938 147.222656 158.109375 148.328125 158.109375 150.042969 C 158.109375 151.796875 161.5 153.050781 165.585938 154.574219 C 169.585938 156.0625 173.972656 159.03125 173.972656 163.148438 C 173.972656 170.652344 167.453125 173.28125 160.457031 173.28125 C 152.066406 173.28125 146.980469 169.128906 146.980469 169.128906 L 151.066406 163.109375 C 151.066406 163.109375 155.847656 166.652344 159.847656 166.652344 C 161.628906 166.652344 165.019531 166.5 165.019531 163.566406 C 165.019531 161.28125 161.195313 160.253906 156.933594 158.386719 C 152.632813 156.519531 150.109375 153.585938 150.109375 150.308594 C 150.109375 144.441406 156.023438 140.707031 161.804688 140.707031 C 168.324219 140.707031 172.929688 143.679688 172.929688 143.679688 "/>
</g>
</g>
</svg>
