{
	"asset":{
		"generator":"Khronos glTF Blender I/O v3.5.30",
		"version":"2.0"
	},
	"scene":0,
	"scenes":[
		{
			"name":"Scene",
			"nodes":[
				0
			]
		}
	],
	"nodes":[
		{
			"mesh":0,
			"name":"molecule",
			"rotation":[
				0.46886223554611206,
				0.46886223554611206,
				-0.5293092727661133,
				0.5293092727661133
			],
			"scale":[
				0.1599999964237213,
				0.1600000113248825,
				0.1599999964237213
			],
			"translation":[
				0,
				-2.412245273590088,
				0
			]
		}
	],
	"animations":[
		{
			"channels":[
				{
					"sampler":0,
					"target":{
						"node":0,
						"path":"translation"
					}
				},
				{
					"sampler":1,
					"target":{
						"node":0,
						"path":"rotation"
					}
				},
				{
					"sampler":2,
					"target":{
						"node":0,
						"path":"scale"
					}
				}
			],
			"name":"molecule",
			"samplers":[
				{
					"input":12,
					"interpolation":"LINEAR",
					"output":13
				},
				{
					"input":12,
					"interpolation":"LINEAR",
					"output":14
				},
				{
					"input":12,
					"interpolation":"LINEAR",
					"output":15
				}
			]
		}
	],
	"materials":[
		{
			"doubleSided":true,
			"name":"MA_Carbon",
			"pbrMetallicRoughness":{
				"baseColorFactor":[
					0.4286068081855774,
					0.44586116075515747,
					0.86888587474823,
					1
				],
				"metallicFactor":0,
				"roughnessFactor":0.5
			}
		},
		{
			"doubleSided":true,
			"name":"MA_Hydrogen",
			"pbrMetallicRoughness":{
				"metallicFactor":0,
				"roughnessFactor":0.5
			}
		},
		{
			"doubleSided":true,
			"name":"MA_Carbon_001",
			"pbrMetallicRoughness":{
				"baseColorFactor":[
					0.6239598989486694,
					0.9734448194503784,
					0.06662623584270477,
					1
				],
				"metallicFactor":0,
				"roughnessFactor":0.5
			}
		}
	],
	"meshes":[
		{
			"name":"Shape_IndexedFaceSet.002",
			"primitives":[
				{
					"attributes":{
						"POSITION":0,
						"TEXCOORD_0":1,
						"NORMAL":2
					},
					"indices":3,
					"material":0
				},
				{
					"attributes":{
						"POSITION":4,
						"TEXCOORD_0":5,
						"NORMAL":6
					},
					"indices":7,
					"material":1
				},
				{
					"attributes":{
						"POSITION":8,
						"TEXCOORD_0":9,
						"NORMAL":10
					},
					"indices":11,
					"material":2
				}
			]
		}
	],
	"accessors":[
		{
			"bufferView":0,
			"componentType":5126,
			"count":38156,
			"max":[
				9.524663925170898,
				0.607026994228363,
				-3.2133851051330566
			],
			"min":[
				-13.173290252685547,
				-0.6557829976081848,
				-27.349876403808594
			],
			"type":"VEC3"
		},
		{
			"bufferView":1,
			"componentType":5126,
			"count":38156,
			"type":"VEC2"
		},
		{
			"bufferView":2,
			"componentType":5126,
			"count":38156,
			"type":"VEC3"
		},
		{
			"bufferView":3,
			"componentType":5123,
			"count":72504,
			"type":"SCALAR"
		},
		{
			"bufferView":4,
			"componentType":5126,
			"count":22643,
			"max":[
				13.32214641571045,
				1,
				0.997146487236023
			],
			"min":[
				-16.972145080566406,
				-1.03125,
				-31.55964469909668
			],
			"type":"VEC3"
		},
		{
			"bufferView":5,
			"componentType":5126,
			"count":22643,
			"type":"VEC2"
		},
		{
			"bufferView":6,
			"componentType":5126,
			"count":22643,
			"type":"VEC3"
		},
		{
			"bufferView":7,
			"componentType":5123,
			"count":36936,
			"type":"SCALAR"
		},
		{
			"bufferView":8,
			"componentType":5126,
			"count":14592,
			"max":[
				8.518133163452148,
				2.387500047683716,
				-4.3006134033203125
			],
			"min":[
				-12.168134689331055,
				-2.4375,
				-26.261882781982422
			],
			"type":"VEC3"
		},
		{
			"bufferView":9,
			"componentType":5126,
			"count":14592,
			"type":"VEC2"
		},
		{
			"bufferView":10,
			"componentType":5126,
			"count":14592,
			"type":"VEC3"
		},
		{
			"bufferView":11,
			"componentType":5123,
			"count":21888,
			"type":"SCALAR"
		},
		{
			"bufferView":12,
			"componentType":5126,
			"count":2,
			"max":[
				0.041666666666666664
			],
			"min":[
				0
			],
			"type":"SCALAR"
		},
		{
			"bufferView":13,
			"componentType":5126,
			"count":2,
			"type":"VEC3"
		},
		{
			"bufferView":14,
			"componentType":5126,
			"count":2,
			"type":"VEC4"
		},
		{
			"bufferView":15,
			"componentType":5126,
			"count":2,
			"type":"VEC3"
		}
	],
	"bufferViews":[
		{
			"buffer":0,
			"byteLength":457872,
			"byteOffset":0,
			"target":34962
		},
		{
			"buffer":0,
			"byteLength":305248,
			"byteOffset":457872,
			"target":34962
		},
		{
			"buffer":0,
			"byteLength":457872,
			"byteOffset":763120,
			"target":34962
		},
		{
			"buffer":0,
			"byteLength":145008,
			"byteOffset":1220992,
			"target":34963
		},
		{
			"buffer":0,
			"byteLength":271716,
			"byteOffset":1366000,
			"target":34962
		},
		{
			"buffer":0,
			"byteLength":181144,
			"byteOffset":1637716,
			"target":34962
		},
		{
			"buffer":0,
			"byteLength":271716,
			"byteOffset":1818860,
			"target":34962
		},
		{
			"buffer":0,
			"byteLength":73872,
			"byteOffset":2090576,
			"target":34963
		},
		{
			"buffer":0,
			"byteLength":175104,
			"byteOffset":2164448,
			"target":34962
		},
		{
			"buffer":0,
			"byteLength":116736,
			"byteOffset":2339552,
			"target":34962
		},
		{
			"buffer":0,
			"byteLength":175104,
			"byteOffset":2456288,
			"target":34962
		},
		{
			"buffer":0,
			"byteLength":43776,
			"byteOffset":2631392,
			"target":34963
		},
		{
			"buffer":0,
			"byteLength":8,
			"byteOffset":2675168
		},
		{
			"buffer":0,
			"byteLength":24,
			"byteOffset":2675176
		},
		{
			"buffer":0,
			"byteLength":32,
			"byteOffset":2675200
		},
		{
			"buffer":0,
			"byteLength":24,
			"byteOffset":2675232
		}
	],
	"buffers":[
		{
			"byteLength":2675256,
			"uri":"data:application/octet-stream;base64,"
		}
	]
}
