{
	"asset":{
		"generator":"Khronos glTF Blender I/O v3.5.30",
		"version":"2.0"
	},
	"scene":0,
	"scenes":[
		{
			"name":"Scene",
			"nodes":[
				29
			]
		}
	],
	"nodes":[
		{
			"mesh":0,
			"name":"bg2_bg2_0"
		},
		{
			"children":[
				0
			],
			"name":"bg2",
			"rotation":[
				0.047508712857961655,
				-0.7055637836456299,
				0.043833356350660324,
				0.7056921124458313
			],
			"scale":[
				113.03370666503906,
				113.03369140625,
				113.03369140625
			],
			"translation":[
				-153.70526123046875,
				194.9165802001953,
				83.02732849121094
			]
		},
		{
			"name":"Cube",
			"rotation":[
				0,
				0.70710688829422,
				-0.7071066498756409,
				3.0908616110991716e-08
			],
			"scale":[
				-368.9494934082031,
				-731.6362915039062,
				-25.97609519958496
			],
			"translation":[
				-61.02370071411133,
				-0.5557101964950562,
				156.09014892578125
			]
		},
		{
			"mesh":1,
			"name":"Cube.001_Material.055_0"
		},
		{
			"children":[
				3
			],
			"name":"Cube.001",
			"rotation":[
				-0.5171452164649963,
				0.48224562406539917,
				0.517145037651062,
				0.48224571347236633
			],
			"scale":[
				325.3415222167969,
				4.050818920135498,
				184.0906982421875
			],
			"translation":[
				-138.594482421875,
				295.6539306640625,
				300.40533447265625
			]
		},
		{
			"mesh":2,
			"name":"Cube.002_Material.044_0"
		},
		{
			"children":[
				5
			],
			"name":"Cube.002",
			"rotation":[
				0.46854349970817566,
				0.5295913815498352,
				-0.46854302287101746,
				0.5295918583869934
			],
			"scale":[
				-325.3415222167969,
				-14.74692440032959,
				-152.85325622558594
			],
			"translation":[
				-146.7056427001953,
				263.6780700683594,
				300.40533447265625
			]
		},
		{
			"mesh":3,
			"name":"Cube.003_Material.001_0",
			"translation":[
				0,
				-3.2735761124058627e-06,
				0
			]
		},
		{
			"children":[
				7
			],
			"name":"Cube.003",
			"rotation":[
				-0.5171452760696411,
				0.48224571347236633,
				0.5171450972557068,
				0.48224571347236633
			],
			"scale":[
				325.3415222167969,
				4.050818920135498,
				31.033918380737305
			],
			"translation":[
				-157.1312255859375,
				447.6515808105469,
				300.40533447265625
			]
		},
		{
			"mesh":4,
			"name":"Cube.004_Material.002_0"
		},
		{
			"children":[
				9
			],
			"name":"Cube.004",
			"rotation":[
				-0.5171452164649963,
				0.48224562406539917,
				0.5171450972557068,
				0.48224571347236633
			],
			"scale":[
				167.59890747070312,
				17.79327964782715,
				193.49795532226562
			],
			"translation":[
				-148.74098205566406,
				180.96981811523438,
				299.24609375
			]
		},
		{
			"mesh":5,
			"name":"Cube.005_Material.003_0",
			"translation":[
				0,
				0,
				-2.4442535959678935e-06
			]
		},
		{
			"children":[
				11
			],
			"name":"Cube.005",
			"rotation":[
				-0.5000000596046448,
				0.5,
				0.5,
				0.5000000596046448
			],
			"scale":[
				16.3199405670166,
				28.81182098388672,
				12.935893058776855
			],
			"translation":[
				-186.53245544433594,
				291.5636901855469,
				297.4250793457031
			]
		},
		{
			"mesh":6,
			"name":"Cube.007_Material.037_0"
		},
		{
			"children":[
				13
			],
			"name":"Cube.007",
			"rotation":[
				0.4999999701976776,
				0.4999999701976776,
				-0.5000000596046448,
				0.5000001192092896
			],
			"scale":[
				-193.84957885742188,
				-54.115821838378906,
				-9.320831298828125
			],
			"translation":[
				-213.017822265625,
				35.33295440673828,
				296.0550537109375
			]
		},
		{
			"mesh":7,
			"name":"Cube.008_Material.036_0"
		},
		{
			"children":[
				15
			],
			"name":"Cube.008",
			"rotation":[
				-0.5735958814620972,
				0.41350674629211426,
				0.4135068953037262,
				0.5735956430435181
			],
			"scale":[
				49.070194244384766,
				108.77943420410156,
				5.648133277893066
			],
			"translation":[
				-80.19873809814453,
				31.64809226989746,
				453.1488952636719
			]
		},
		{
			"mesh":8,
			"name":"Cube.009_Material.039_0"
		},
		{
			"children":[
				17
			],
			"name":"Cube.009",
			"rotation":[
				-0.42243698239326477,
				0.5670511722564697,
				0.5670512914657593,
				0.4224369525909424
			],
			"scale":[
				49.0702018737793,
				108.77944946289062,
				5.648133754730225
			],
			"translation":[
				-80.19878387451172,
				31.64809226989746,
				163.7945098876953
			]
		},
		{
			"mesh":9,
			"name":"Cube.010_Material.006_0"
		},
		{
			"children":[
				19
			],
			"name":"Cube.010",
			"rotation":[
				-0.0021357990335673094,
				0.7071035504341125,
				0.7071035504341125,
				0.0021357994992285967
			],
			"scale":[
				43.41202926635742,
				96.23631286621094,
				4.996859550476074
			],
			"translation":[
				-181.1455535888672,
				31.63688087463379,
				295.79583740234375
			]
		},
		{
			"mesh":10,
			"name":"Cube.080_Material.089_0",
			"translation":[
				0,
				-4.9167142606165726e-06,
				0
			]
		},
		{
			"children":[
				21
			],
			"name":"Cube.080",
			"rotation":[
				-0.5,
				0.5000000596046448,
				-0.5,
				0.4999999403953552
			],
			"scale":[
				16.037994384765625,
				9.162006378173828,
				4.326242446899414
			],
			"translation":[
				-158.49339294433594,
				199.97454833984375,
				375.16339111328125
			]
		},
		{
			"mesh":11,
			"name":"gallerymodel_gallerymodel_0"
		},
		{
			"children":[
				23
			],
			"name":"gallerymodel",
			"rotation":[
				0.043231599032878876,
				-0.6085325479507446,
				0.04297766834497452,
				0.7911840081214905
			],
			"scale":[
				80.6890640258789,
				80.68904876708984,
				80.6890640258789
			],
			"translation":[
				-142.04046630859375,
				164.81265258789062,
				596.0804443359375
			]
		},
		{
			"mesh":12,
			"name":"MY SCREEN_MY SCREEN_0"
		},
		{
			"children":[
				25
			],
			"name":"MY SCREEN",
			"rotation":[
				-0.024677690118551254,
				0.7066760063171387,
				0.024677690118551254,
				0.7066760659217834
			],
			"scale":[
				331.62115478515625,
				348.0652160644531,
				331.6211853027344
			],
			"translation":[
				-136.17652893066406,
				300.1324768066406,
				300.40533447265625
			]
		},
		{
			"children":[
				1,
				2,
				4,
				6,
				8,
				10,
				12,
				14,
				16,
				18,
				20,
				22,
				24,
				26
			],
			"name":"RootNode"
		},
		{
			"children":[
				27
			],
			"name":"dd12f1d0399348aab05d4e554860e7c0.fbx",
			"rotation":[
				0.70710688829422,
				0,
				0,
				0.7071066498756409
			],
			"scale":[
				0.009999999776482582,
				0.010000000707805157,
				0.010000000707805157
			]
		},
		{
			"children":[
				28
			],
			"name":"Sketchfab_model",
			"rotation":[
				-0.70710688829422,
				0,
				0,
				0.7071066498756409
			]
		}
	],
	"materials":[
		{
			"alphaCutoff":0.11118333786725998,
			"alphaMode":"MASK",
			"doubleSided":true,
			"name":"Material.074_29",
			"pbrMetallicRoughness":{
				"baseColorTexture":{
					"index":0
				},
				"metallicFactor":0,
				"roughnessFactor":0.506688117980957
			}
		},
		{
			"doubleSided":true,
			"name":"Material.055",
			"pbrMetallicRoughness":{
				"baseColorFactor":[
					0.03740980103611946,
					0.03740980103611946,
					0.03740980103611946,
					1
				],
				"metallicFactor":0.5600327253341675,
				"roughnessFactor":0.36111536622047424
			}
		},
		{
			"doubleSided":true,
			"name":"Material.044",
			"pbrMetallicRoughness":{
				"baseColorFactor":[
					0.026886530220508575,
					0.026886530220508575,
					0.026886530220508575,
					1
				],
				"metallicFactor":0.40839439630508423,
				"roughnessFactor":0.5309502482414246
			}
		},
		{
			"doubleSided":true,
			"name":"Material.025",
			"pbrMetallicRoughness":{
				"baseColorFactor":[
					0,
					0,
					0,
					1
				],
				"metallicFactor":0,
				"roughnessFactor":0
			}
		},
		{
			"doubleSided":true,
			"name":"Material.002",
			"pbrMetallicRoughness":{
				"baseColorTexture":{
					"index":1
				}
			}
		},
		{
			"doubleSided":true,
			"name":"Material.003",
			"pbrMetallicRoughness":{
				"baseColorFactor":[
					0.012286500073969364,
					0.012286500073969364,
					0.012286500073969364,
					1
				],
				"metallicFactor":0,
				"roughnessFactor":0.9972526431083679
			}
		},
		{
			"doubleSided":true,
			"name":"Material.037",
			"pbrMetallicRoughness":{
				"baseColorFactor":[
					0.05780230090022087,
					0.05644179880619049,
					0.05510060116648674,
					1
				],
				"metallicFactor":0,
				"roughnessFactor":0.39144304394721985
			}
		},
		{
			"doubleSided":true,
			"name":"Material.039",
			"pbrMetallicRoughness":{
				"baseColorFactor":[
					0.05780230090022087,
					0.05780230090022087,
					0.05780230090022087,
					1
				],
				"metallicFactor":0,
				"roughnessFactor":0.39750856161117554
			}
		},
		{
			"doubleSided":true,
			"name":"Material.006",
			"pbrMetallicRoughness":{
				"baseColorFactor":[
					0.05221780017018318,
					0.05221780017018318,
					0.05221780017018318,
					1
				],
				"metallicFactor":0,
				"roughnessFactor":0.42783623933792114
			}
		},
		{
			"alphaCutoff":0.5539671778678894,
			"alphaMode":"MASK",
			"doubleSided":true,
			"name":"Material.074_28",
			"pbrMetallicRoughness":{
				"baseColorTexture":{
					"index":2
				},
				"roughnessFactor":0
			}
		},
		{
			"doubleSided":true,
			"emissiveFactor":[
				1,
				1,
				1
			],
			"emissiveTexture":{
				"index":3
			},
			"name":"Material.074_30",
			"pbrMetallicRoughness":{
				"baseColorTexture":{
					"index":4
				},
				"metallicFactor":0,
				"roughnessFactor":0.4399673044681549
			}
		}
	],
	"meshes":[
		{
			"name":"bg2_bg2_0",
			"primitives":[
				{
					"attributes":{
						"POSITION":0,
						"TEXCOORD_0":1,
						"NORMAL":2
					},
					"indices":3,
					"material":0
				}
			]
		},
		{
			"name":"Cube.001_Material.055_0",
			"primitives":[
				{
					"attributes":{
						"POSITION":4,
						"TEXCOORD_0":5,
						"NORMAL":6
					},
					"indices":7,
					"material":1
				}
			]
		},
		{
			"name":"Cube.002_Material.044_0",
			"primitives":[
				{
					"attributes":{
						"POSITION":8,
						"TEXCOORD_0":9,
						"NORMAL":10
					},
					"indices":11,
					"material":2
				}
			]
		},
		{
			"name":"Cube.003_Material.001_0",
			"primitives":[
				{
					"attributes":{
						"POSITION":12,
						"TEXCOORD_0":13,
						"NORMAL":14
					},
					"indices":15,
					"material":3
				}
			]
		},
		{
			"name":"Cube.004_Material.002_0",
			"primitives":[
				{
					"attributes":{
						"POSITION":16,
						"TEXCOORD_0":17,
						"NORMAL":18
					},
					"indices":19,
					"material":4
				}
			]
		},
		{
			"name":"Cube.005_Material.003_0",
			"primitives":[
				{
					"attributes":{
						"POSITION":20,
						"TEXCOORD_0":21,
						"NORMAL":22
					},
					"indices":19,
					"material":5
				}
			]
		},
		{
			"name":"Cube.007_Material.037_0",
			"primitives":[
				{
					"attributes":{
						"POSITION":23,
						"TEXCOORD_0":24,
						"NORMAL":25
					},
					"indices":26,
					"material":6
				}
			]
		},
		{
			"name":"Cube.008_Material.036_0",
			"primitives":[
				{
					"attributes":{
						"POSITION":27,
						"TEXCOORD_0":28,
						"NORMAL":29
					},
					"indices":30,
					"material":7
				}
			]
		},
		{
			"name":"Cube.009_Material.039_0",
			"primitives":[
				{
					"attributes":{
						"POSITION":31,
						"TEXCOORD_0":32,
						"NORMAL":33
					},
					"indices":34,
					"material":7
				}
			]
		},
		{
			"name":"Cube.010_Material.006_0",
			"primitives":[
				{
					"attributes":{
						"POSITION":35,
						"TEXCOORD_0":36,
						"NORMAL":37
					},
					"indices":30,
					"material":8
				}
			]
		},
		{
			"name":"Cube.080_Material.089_0",
			"primitives":[
				{
					"attributes":{
						"POSITION":38,
						"TEXCOORD_0":39,
						"NORMAL":40
					},
					"indices":19,
					"material":3
				}
			]
		},
		{
			"name":"gallerymodel_gallerymodel_0",
			"primitives":[
				{
					"attributes":{
						"POSITION":41,
						"TEXCOORD_0":42,
						"NORMAL":43
					},
					"indices":44,
					"material":9
				}
			]
		},
		{
			"name":"MY SCREEN_MY SCREEN_0",
			"primitives":[
				{
					"attributes":{
						"POSITION":45,
						"TEXCOORD_0":46,
						"NORMAL":47
					},
					"indices":3,
					"material":10
				}
			]
		}
	],
	"textures":[
		{
			"sampler":0,
			"source":0
		},
		{
			"sampler":1,
			"source":1
		},
		{
			"sampler":0,
			"source":2
		},
		{
			"sampler":1,
			"source":3
		},
		{
			"sampler":0,
			"source":3
		}
	],
	"images":[
		{
			"mimeType":"image/png",
			"name":"Material.074_29_baseColor",
			"uri":"Material_074_29_baseColor.png"
		},
		{
			"mimeType":"image/png",
			"name":"Material.002_baseColor",
			"uri":"Material_002_baseColor.png"
		},
		{
			"mimeType":"image/png",
			"name":"Material.074_28_baseColor",
			"uri":"Material_074_28_baseColor.png"
		},
		{
			"mimeType":"image/png",
			"name":"Material.074_30_baseColor",
			"uri":"Material_074_30_baseColor.png"
		}
	],
	"accessors":[
		{
			"bufferView":0,
			"componentType":5126,
			"count":4,
			"max":[
				0.23312883079051971,
				0.5,
				0
			],
			"min":[
				-0.23312883079051971,
				-0.5,
				0
			],
			"type":"VEC3"
		},
		{
			"bufferView":1,
			"componentType":5126,
			"count":4,
			"type":"VEC2"
		},
		{
			"bufferView":2,
			"componentType":5126,
			"count":4,
			"type":"VEC3"
		},
		{
			"bufferView":3,
			"componentType":5123,
			"count":6,
			"type":"SCALAR"
		},
		{
			"bufferView":4,
			"componentType":5126,
			"count":54,
			"max":[
				1,
				1,
				1
			],
			"min":[
				-1,
				-1,
				-1
			],
			"type":"VEC3"
		},
		{
			"bufferView":5,
			"componentType":5126,
			"count":54,
			"type":"VEC2"
		},
		{
			"bufferView":6,
			"componentType":5126,
			"count":54,
			"type":"VEC3"
		},
		{
			"bufferView":7,
			"componentType":5123,
			"count":84,
			"type":"SCALAR"
		},
		{
			"bufferView":8,
			"componentType":5126,
			"count":1039,
			"max":[
				1.0000001192092896,
				0.9999982118606567,
				1
			],
			"min":[
				-1.0000001192092896,
				-1.000002145767212,
				-1
			],
			"type":"VEC3"
		},
		{
			"bufferView":9,
			"componentType":5126,
			"count":1039,
			"type":"VEC2"
		},
		{
			"bufferView":10,
			"componentType":5126,
			"count":1039,
			"type":"VEC3"
		},
		{
			"bufferView":11,
			"componentType":5123,
			"count":1485,
			"type":"SCALAR"
		},
		{
			"bufferView":12,
			"componentType":5126,
			"count":512,
			"max":[
				1,
				1,
				1
			],
			"min":[
				-1,
				-1,
				-1
			],
			"type":"VEC3"
		},
		{
			"bufferView":13,
			"componentType":5126,
			"count":512,
			"type":"VEC2"
		},
		{
			"bufferView":14,
			"componentType":5126,
			"count":512,
			"type":"VEC3"
		},
		{
			"bufferView":15,
			"componentType":5123,
			"count":1512,
			"type":"SCALAR"
		},
		{
			"bufferView":16,
			"componentType":5126,
			"count":24,
			"max":[
				0.6847941279411316,
				1,
				1
			],
			"min":[
				-0.6627016663551331,
				-1,
				0.159446120262146
			],
			"type":"VEC3"
		},
		{
			"bufferView":17,
			"componentType":5126,
			"count":24,
			"type":"VEC2"
		},
		{
			"bufferView":18,
			"componentType":5126,
			"count":24,
			"type":"VEC3"
		},
		{
			"bufferView":19,
			"componentType":5123,
			"count":36,
			"type":"SCALAR"
		},
		{
			"bufferView":20,
			"componentType":5126,
			"count":24,
			"max":[
				1,
				1,
				1
			],
			"min":[
				-1,
				-1,
				-1
			],
			"type":"VEC3"
		},
		{
			"bufferView":21,
			"componentType":5126,
			"count":24,
			"type":"VEC2"
		},
		{
			"bufferView":22,
			"componentType":5126,
			"count":24,
			"type":"VEC3"
		},
		{
			"bufferView":23,
			"componentType":5126,
			"count":1389,
			"max":[
				0.9520146250724792,
				1,
				0.9999926090240479
			],
			"min":[
				-0.8265893459320068,
				-1,
				-1.0000078678131104
			],
			"type":"VEC3"
		},
		{
			"bufferView":24,
			"componentType":5126,
			"count":1389,
			"type":"VEC2"
		},
		{
			"bufferView":25,
			"componentType":5126,
			"count":1389,
			"type":"VEC3"
		},
		{
			"bufferView":26,
			"componentType":5123,
			"count":1692,
			"type":"SCALAR"
		},
		{
			"bufferView":27,
			"componentType":5126,
			"count":26,
			"max":[
				1.000000238418579,
				1,
				1.0000001192092896
			],
			"min":[
				-0.9999997615814209,
				-0.7173241376876831,
				-1.0000001192092896
			],
			"type":"VEC3"
		},
		{
			"bufferView":28,
			"componentType":5126,
			"count":26,
			"type":"VEC2"
		},
		{
			"bufferView":29,
			"componentType":5126,
			"count":26,
			"type":"VEC3"
		},
		{
			"bufferView":30,
			"componentType":5123,
			"count":36,
			"type":"SCALAR"
		},
		{
			"bufferView":31,
			"componentType":5126,
			"count":30,
			"max":[
				1.000000238418579,
				1,
				1.0000001192092896
			],
			"min":[
				-1.000000238418579,
				-0.6962063312530518,
				-1.0000001192092896
			],
			"type":"VEC3"
		},
		{
			"bufferView":32,
			"componentType":5126,
			"count":30,
			"type":"VEC2"
		},
		{
			"bufferView":33,
			"componentType":5126,
			"count":30,
			"type":"VEC3"
		},
		{
			"bufferView":34,
			"componentType":5123,
			"count":36,
			"type":"SCALAR"
		},
		{
			"bufferView":35,
			"componentType":5126,
			"count":26,
			"max":[
				1.000000238418579,
				1,
				1.0000001192092896
			],
			"min":[
				-0.9999997615814209,
				-0.7173241376876831,
				-1.0000001192092896
			],
			"type":"VEC3"
		},
		{
			"bufferView":36,
			"componentType":5126,
			"count":26,
			"type":"VEC2"
		},
		{
			"bufferView":37,
			"componentType":5126,
			"count":26,
			"type":"VEC3"
		},
		{
			"bufferView":38,
			"componentType":5126,
			"count":24,
			"max":[
				1,
				1,
				1
			],
			"min":[
				-1,
				-1,
				-1
			],
			"type":"VEC3"
		},
		{
			"bufferView":39,
			"componentType":5126,
			"count":24,
			"type":"VEC2"
		},
		{
			"bufferView":40,
			"componentType":5126,
			"count":24,
			"type":"VEC3"
		},
		{
			"bufferView":41,
			"componentType":5126,
			"count":140,
			"max":[
				0.17399999499320984,
				0.5,
				0
			],
			"min":[
				-0.17399999499320984,
				-0.5,
				0
			],
			"type":"VEC3"
		},
		{
			"bufferView":42,
			"componentType":5126,
			"count":140,
			"type":"VEC2"
		},
		{
			"bufferView":43,
			"componentType":5126,
			"count":140,
			"type":"VEC3"
		},
		{
			"bufferView":44,
			"componentType":5123,
			"count":414,
			"type":"SCALAR"
		},
		{
			"bufferView":45,
			"componentType":5126,
			"count":4,
			"max":[
				0.9528301954269409,
				0.5,
				0
			],
			"min":[
				-0.9528301954269409,
				-0.5,
				0
			],
			"type":"VEC3"
		},
		{
			"bufferView":46,
			"componentType":5126,
			"count":4,
			"type":"VEC2"
		},
		{
			"bufferView":47,
			"componentType":5126,
			"count":4,
			"type":"VEC3"
		}
	],
	"bufferViews":[
		{
			"buffer":0,
			"byteLength":48,
			"byteOffset":0,
			"target":34962
		},
		{
			"buffer":0,
			"byteLength":32,
			"byteOffset":48,
			"target":34962
		},
		{
			"buffer":0,
			"byteLength":48,
			"byteOffset":80,
			"target":34962
		},
		{
			"buffer":0,
			"byteLength":12,
			"byteOffset":128,
			"target":34963
		},
		{
			"buffer":0,
			"byteLength":648,
			"byteOffset":140,
			"target":34962
		},
		{
			"buffer":0,
			"byteLength":432,
			"byteOffset":788,
			"target":34962
		},
		{
			"buffer":0,
			"byteLength":648,
			"byteOffset":1220,
			"target":34962
		},
		{
			"buffer":0,
			"byteLength":168,
			"byteOffset":1868,
			"target":34963
		},
		{
			"buffer":0,
			"byteLength":12468,
			"byteOffset":2036,
			"target":34962
		},
		{
			"buffer":0,
			"byteLength":8312,
			"byteOffset":14504,
			"target":34962
		},
		{
			"buffer":0,
			"byteLength":12468,
			"byteOffset":22816,
			"target":34962
		},
		{
			"buffer":0,
			"byteLength":2970,
			"byteOffset":35284,
			"target":34963
		},
		{
			"buffer":0,
			"byteLength":6144,
			"byteOffset":38256,
			"target":34962
		},
		{
			"buffer":0,
			"byteLength":4096,
			"byteOffset":44400,
			"target":34962
		},
		{
			"buffer":0,
			"byteLength":6144,
			"byteOffset":48496,
			"target":34962
		},
		{
			"buffer":0,
			"byteLength":3024,
			"byteOffset":54640,
			"target":34963
		},
		{
			"buffer":0,
			"byteLength":288,
			"byteOffset":57664,
			"target":34962
		},
		{
			"buffer":0,
			"byteLength":192,
			"byteOffset":57952,
			"target":34962
		},
		{
			"buffer":0,
			"byteLength":288,
			"byteOffset":58144,
			"target":34962
		},
		{
			"buffer":0,
			"byteLength":72,
			"byteOffset":58432,
			"target":34963
		},
		{
			"buffer":0,
			"byteLength":288,
			"byteOffset":58504,
			"target":34962
		},
		{
			"buffer":0,
			"byteLength":192,
			"byteOffset":58792,
			"target":34962
		},
		{
			"buffer":0,
			"byteLength":288,
			"byteOffset":58984,
			"target":34962
		},
		{
			"buffer":0,
			"byteLength":16668,
			"byteOffset":59272,
			"target":34962
		},
		{
			"buffer":0,
			"byteLength":11112,
			"byteOffset":75940,
			"target":34962
		},
		{
			"buffer":0,
			"byteLength":16668,
			"byteOffset":87052,
			"target":34962
		},
		{
			"buffer":0,
			"byteLength":3384,
			"byteOffset":103720,
			"target":34963
		},
		{
			"buffer":0,
			"byteLength":312,
			"byteOffset":107104,
			"target":34962
		},
		{
			"buffer":0,
			"byteLength":208,
			"byteOffset":107416,
			"target":34962
		},
		{
			"buffer":0,
			"byteLength":312,
			"byteOffset":107624,
			"target":34962
		},
		{
			"buffer":0,
			"byteLength":72,
			"byteOffset":107936,
			"target":34963
		},
		{
			"buffer":0,
			"byteLength":360,
			"byteOffset":108008,
			"target":34962
		},
		{
			"buffer":0,
			"byteLength":240,
			"byteOffset":108368,
			"target":34962
		},
		{
			"buffer":0,
			"byteLength":360,
			"byteOffset":108608,
			"target":34962
		},
		{
			"buffer":0,
			"byteLength":72,
			"byteOffset":108968,
			"target":34963
		},
		{
			"buffer":0,
			"byteLength":312,
			"byteOffset":109040,
			"target":34962
		},
		{
			"buffer":0,
			"byteLength":208,
			"byteOffset":109352,
			"target":34962
		},
		{
			"buffer":0,
			"byteLength":312,
			"byteOffset":109560,
			"target":34962
		},
		{
			"buffer":0,
			"byteLength":288,
			"byteOffset":109872,
			"target":34962
		},
		{
			"buffer":0,
			"byteLength":192,
			"byteOffset":110160,
			"target":34962
		},
		{
			"buffer":0,
			"byteLength":288,
			"byteOffset":110352,
			"target":34962
		},
		{
			"buffer":0,
			"byteLength":1680,
			"byteOffset":110640,
			"target":34962
		},
		{
			"buffer":0,
			"byteLength":1120,
			"byteOffset":112320,
			"target":34962
		},
		{
			"buffer":0,
			"byteLength":1680,
			"byteOffset":113440,
			"target":34962
		},
		{
			"buffer":0,
			"byteLength":828,
			"byteOffset":115120,
			"target":34963
		},
		{
			"buffer":0,
			"byteLength":48,
			"byteOffset":115948,
			"target":34962
		},
		{
			"buffer":0,
			"byteLength":32,
			"byteOffset":115996,
			"target":34962
		},
		{
			"buffer":0,
			"byteLength":48,
			"byteOffset":116028,
			"target":34962
		}
	],
	"samplers":[
		{
			"magFilter":9729,
			"minFilter":9987,
			"wrapS":33071,
			"wrapT":33071
		},
		{
			"magFilter":9729,
			"minFilter":9987
		}
	],
	"buffers":[
		{
			"byteLength":116076,
			"uri":"pc.bin"
		}
	]
}
